<svg version="1.0" xmlns="http://www.w3.org/2000/svg" width="171.000000pt" height="175.000000pt" viewBox="0 0 171.000000 175.000000" preserveAspectRatio="xMidYMid meet">
    <g transform="translate(0.000000,175.000000) scale(0.100000,-0.100000)" stroke="none">
        <path d="M352 1739 c-157 -31 -289 -163 -322 -325 -7 -34 -10 -231 -8 -570 3 -514 3 -520 26 -576 44 -109 131 -196 240 -240 56 -22 65 -23 530 -26 314 -2 491 1 526 8 182 37 312 178 336 360 12 98 12 912 0 1010 -23 178 -140 309 -317 355 -47 12 -139 15 -513 14 -250 -1 -474 -5 -498 -10z m1061 -103 c70 -36 130 -99 165 -174 l27 -57 0 -530 0 -530 -27 -57 c-35 -75 -95 -138 -165 -174 l-58 -29 -500 0 -500 0 -56 26 c-72 34 -134 96 -168 168 l-26 56 0 540 0 540 26 56 c44 94 130 165 226 188 21 5 254 9 518 8 l480 -2 58 -29z" fill="#e81f76"/>
        <path d="M622 1007 l-32 -33 138 -137 137 -137 133 133 c72 73 132 137 132 143 0 6 -13 22 -28 37 l-28 27 -104 -105 -105 -105 -105 105 -106 105 -32 -33z" fill="#000000"/>
    </g>
</svg>